<?xml version="1.0" encoding="UTF-8"?>
<svg id="_レイヤー_2" data-name="レイヤー 2" xmlns="http://www.w3.org/2000/svg" viewBox="0 0 796 517.58">
  <defs>
    <style>
      .cls-1 {
        fill: #000;
        stroke-width: 0px;
      }
    </style>
  </defs>
  <g id="_2" data-name="ﾑ2">
    <path class="cls-1" d="M0,502.57v15.01h623.42v-15.01H0ZM376.93,63.18v15.89h348.59v-15.89h-348.59ZM376.93,63.18v15.89h348.59v-15.89h-348.59ZM316.71,0v332.27h80.37l.92,98.72,128.2-98.72,269.8.03V0h-479.29ZM780.1,316.37h-259.31l-107.19,82.54-.77-82.54h-80.22V15.89h447.49v300.48ZM725.52,63.18h-348.59v15.89h348.59v-15.89ZM376.93,63.18v15.89h348.59v-15.89h-348.59ZM477.3,397.44l-19.49,15.02h165.61v-15.02h-146.12ZM375.88,397.44H0v15.02h376.02l-.14-15.02ZM0,292.32v15.01h294.9v-15.01H0ZM0,187.21v15.01h294.9v-15.01H0ZM0,82.08v15.01h294.9v-15.01H0ZM376.93,63.18v15.89h348.59v-15.89h-348.59ZM558.51,249.17v15.89h-181.58v-15.89h181.58ZM725.52,127.06v15.91h-348.59v-15.91h348.59ZM725.52,186.76v15.91h-348.59v-15.91h348.59Z"/>
  </g>
</svg>