<?xml version="1.0" encoding="UTF-8"?>
<svg id="_レイヤー_2" data-name="レイヤー 2" xmlns="http://www.w3.org/2000/svg" viewBox="0 0 416.82 280.96">
  <defs>
    <style>
      .cls-1 {
        fill: #283845;
        stroke-width: 0px;
      }
    </style>
  </defs>
  <g id="Layer_1" data-name="Layer 1">
    <g>
      <path class="cls-1" d="M369.96,273.29V76.5h-59.82v196.79h-25.79v-104.24h-59.82v104.24h-25.75l1.72-165.05h-59.82l-1.72,165.05h-25.83v-100.29h-59.82v100.29H7.67v-44.64h18.95v-7.67H7.67v-48.53h18.95v-7.67H7.67v-48.53h18.95v-7.67H7.67v-48.53h18.95v-7.67H7.67V0H0v280.96h416.82v-7.67h-46.86ZM317.82,84.17h44.47v189.12h-44.47V84.17ZM232.21,176.72h44.47v96.57h-44.47v-96.57ZM148.28,115.91h44.47l-1.64,157.38h-44.47l1.64-157.38ZM60.99,180.67h44.47v92.62h-44.47v-92.62Z"/>
      <path class="cls-1" d="M79.08,139.03c8.4,0,15.23-6.83,15.23-15.23,0-2-.4-3.9-1.1-5.65l63.84-47.6c2.59,2.05,5.86,3.28,9.42,3.28,4.57,0,8.66-2.03,11.46-5.23l63.01,38.82c-.54,1.57-.86,3.24-.86,4.99,0,8.4,6.83,15.23,15.23,15.23s15.23-6.83,15.23-15.23c0-2.9-.83-5.61-2.24-7.92l62.4-67.63c2.59,2.02,5.83,3.24,9.36,3.24,8.4,0,15.23-6.83,15.23-15.23s-6.83-15.23-15.23-15.23-15.23,6.83-15.23,15.23c0,2.05.41,4,1.15,5.79l-63.2,68.49c-2.21-1.25-4.76-1.97-7.47-1.97-3.88,0-7.41,1.47-10.1,3.86l-63.83-39.32c.21-1.01.32-2.05.32-3.12,0-8.4-6.83-15.23-15.23-15.23s-15.23,6.83-15.23,15.23c0,2.07.42,4.04,1.17,5.84l-63.75,47.53c-2.62-2.12-5.95-3.4-9.57-3.4-8.4,0-15.23,6.83-15.23,15.23s6.83,15.23,15.23,15.23ZM340.05,17.32c4.17,0,7.56,3.39,7.56,7.56s-3.39,7.56-7.56,7.56-7.56-3.39-7.56-7.56,3.39-7.56,7.56-7.56ZM255.3,104.85c4.17,0,7.56,3.39,7.56,7.56s-3.39,7.56-7.56,7.56-7.56-3.39-7.56-7.56,3.39-7.56,7.56-7.56ZM166.46,51.05c4.17,0,7.56,3.39,7.56,7.56s-3.39,7.56-7.56,7.56-7.55-3.39-7.55-7.56,3.39-7.56,7.55-7.56ZM79.08,116.25c4.17,0,7.56,3.39,7.56,7.56s-3.39,7.56-7.56,7.56-7.56-3.39-7.56-7.56,3.39-7.56,7.56-7.56Z"/>
    </g>
  </g>
</svg>