<?xml version="1.0" encoding="UTF-8"?>
<svg id="_レイヤー_2" data-name="レイヤー 2" xmlns="http://www.w3.org/2000/svg" viewBox="0 0 801.5 640.63">
  <defs>
    <style>
      .cls-1 {
        fill: #000;
        stroke-width: 0px;
      }
    </style>
  </defs>
  <g id="_2" data-name="ﾑ2">
    <path class="cls-1" d="M414.79,263.05c10.42-17.72,13.33-38.42,8.19-58.28-1.22-4.73-2.91-9.37-5.03-13.8l-.42-.88.42-.88c8.85-18.53,9.94-39.41,3.07-58.78-6.85-19.36-20.84-34.9-39.38-43.74-4.43-2.11-9.07-3.8-13.81-5.03l-1.17-.3-.29-1.18c-8.54-33.95-38.92-57.66-73.87-57.66-3.95,0-7.96.31-11.89.93l-1.04.16-.74-.74C264.5,8.34,244.56,0,224.13,0h-11.67c-21.37,0-41.89,9.04-56.3,24.82l-.84.93-1.21-.34c-6.75-1.88-13.69-2.83-20.63-2.83-34.38,0-64.82,23.16-74.05,56.35-.12.42-.23.84-.34,1.26l-.3,1.17-1.16.3c-19.9,5.18-36.6,17.8-47.01,35.53C.22,134.94-2.67,155.67,2.51,175.57c2.35,9.04,6.28,17.48,11.67,25.09l.57.81-.28.95c-2.08,7-3.13,14.27-3.13,21.59.02,30.3,17.91,57.89,45.57,70.28l.97.44.2,1.03c7.05,35.84,38.63,61.85,75.11,61.85,3.9,0,7.83-.3,11.67-.89l1.04-.15.73.75c14.35,14.54,34.29,22.88,54.71,22.88h11.67c21.36,0,41.87-9.05,56.29-24.82l.85-.93,1.21.34c6.76,1.88,13.7,2.83,20.63,2.83,34.38,0,64.82-23.17,74.04-56.33l.07-.28c.09-.35.19-.69.27-1.02l.3-1.16,1.16-.3c19.85-5.15,36.53-17.74,46.96-35.47ZM32.99,205.23c.25-.73.53-1.48.8-2.19,1.21-3.13.61-6.67-1.55-9.26-10.04-11.96-14.83-27.11-13.47-42.67,1.36-15.56,8.69-29.65,20.65-39.7,8.19-6.88,18.11-11.38,28.69-13.01,4.01-.62,7.11-3.72,7.73-7.73,4.32-28.26,29.09-49.57,57.62-49.57,2.95,0,5.94.23,8.88.68,4.35.66,8.61,1.81,12.68,3.43,1.08.43,2.22.64,3.38.64,2.92,0,5.69-1.39,7.42-3.73,10.9-14.79,28.38-23.62,46.77-23.62h11.45c17.49,0,33.91,7.71,45.04,21.15,2.25,2.7,5.79,3.89,9.25,3.09,4.64-1.17,9.4-1.77,14.15-1.77,26.46,0,49.47,17.94,55.96,43.64.51,2.01.91,4.05,1.19,6.08.61,3.99,3.72,7.09,7.73,7.7,15.42,2.36,28.99,10.58,38.22,23.16,9.23,12.57,13.02,27.98,10.66,43.4-1.11,7.25-3.54,14.15-7.23,20.5-1.66,2.85-1.66,6.4,0,9.27,7.84,13.48,9.95,29.2,5.95,44.29-4,15.08-13.62,27.69-27.11,35.53-6.33,3.68-13.23,6.12-20.5,7.23-4,.62-7.11,3.73-7.73,7.74-4.31,28.25-29.08,49.56-57.62,49.56-2.93,0-5.92-.23-8.88-.67-4.37-.67-8.63-1.83-12.69-3.44-1.08-.42-2.22-.63-3.38-.63-2.91,0-5.68,1.39-7.43,3.72-10.9,14.79-28.38,23.63-46.77,23.63h-11.45c-17.5,0-33.92-7.72-45.05-21.16-1.76-2.12-4.35-3.33-7.12-3.33-.75,0-1.47.08-2.15.25-4.59,1.14-9.3,1.72-14,1.72-26.68,0-49.81-18.1-56.26-44.03-.67-2.67-1.14-5.4-1.42-8.13-.4-3.52-2.82-6.54-6.18-7.71-30.41-10.42-46.69-43.64-36.28-74.06ZM801,271.02c-1.9-13.56-8.96-25.57-19.88-33.82-4.74-3.58-10-6.28-15.64-8.04-5.45-1.7-11.11-2.47-16.81-2.28-1.96.06-3.92.23-5.81.51-13.43,1.94-25.34,8.98-33.53,19.85l-22.04,29.2-1.53,2.15-200.48,265.58-.42.54-12.62,73.29c-1.23,7.16,1.6,14.34,7.41,18.72,3.34,2.52,7.48,3.92,11.64,3.92.39,0,.79-.01,1.19-.04,2.5-.16,4.92-.79,7.2-1.89l66.44-31.95.57-.29,210.44-278.78,1.64-2.29,12.38-16.41c8.25-10.92,11.75-24.41,9.85-37.97ZM553.93,592l-63.66,30.61,12-69.65,51.66,39.04ZM752.79,329.1l-187.41,248.27-52.16-39.42,187.31-248.14,52.25,39.29ZM776.32,297.8l-12.39,16.41-52.25-39.29,12.46-16.5c5.23-6.93,12.82-11.42,21.36-12.65,1.26-.18,2.52-.29,3.74-.33,3.65-.12,7.25.38,10.71,1.45,3.59,1.12,6.94,2.85,9.97,5.13,6.97,5.26,11.47,12.92,12.68,21.57,1.21,8.65-1.02,17.25-6.28,24.21ZM470.65,353.98h0c-.03-23.77-19.39-43.13-43.17-43.16-24.9,0-44.95,21.19-43.04,46.49,1.59,21.1,18.63,38.14,39.74,39.72,25.29,1.89,46.47-18.15,46.47-43.04ZM452.13,353.98c-.02,13.58-11.07,24.64-24.64,24.65-14.52,0-26.16-12.63-24.49-27.48,1.27-11.31,10.37-20.41,21.68-21.66,14.84-1.65,27.46,9.97,27.46,24.49ZM504.56,461.36h0c-.02-17.55-14.31-31.85-31.86-31.86-18.32,0-33.08,15.54-31.78,34.14,1.1,15.7,13.81,28.41,29.51,29.51,18.59,1.3,34.14-13.46,34.14-31.78ZM486.04,461.36c0,7.35-5.99,13.34-13.34,13.35-7.87,0-14.17-6.84-13.27-14.88.68-6.11,5.63-11.05,11.74-11.73,8.04-.89,14.87,5.4,14.87,13.26Z"/>
  </g>
</svg>